<svg
   xml:space="preserve"
   width="100"
   height="100"
   fill="#0073e6"
   viewBox="-250.2 655.9 100 100"
   version="1.1"
   id="svg178"
   sodipodi:docname="MCDC_Scroll.svg"
   inkscape:version="1.2 (1:1.2.1+202207142221+cd75a1ee6d)"
   inkscape:export-filename="MCDC_Scroll.png"
   inkscape:export-xdpi="96"
   inkscape:export-ydpi="96"
   xmlns:inkscape="http://www.inkscape.org/namespaces/inkscape"
   xmlns:sodipodi="http://sodipodi.sourceforge.net/DTD/sodipodi-0.dtd"
   xmlns:xlink="http://www.w3.org/1999/xlink"
   xmlns="http://www.w3.org/2000/svg"
   xmlns:svg="http://www.w3.org/2000/svg"><defs
   id="defs182"><linearGradient
     id="linearGradient4542"><stop
       style="stop-color:#000000;stop-opacity:1;"
       offset="0"
       id="stop4544" /><stop
       style="stop-color:#000000;stop-opacity:0;"
       offset="1"
       id="stop4546" /></linearGradient><linearGradient
     id="linearGradient15662"><stop
       id="stop15664"
       offset="0"
       style="stop-color:#ffffff;stop-opacity:1.0000000;" /><stop
       id="stop15666"
       offset="1"
       style="stop-color:#f8f8f8;stop-opacity:1.0000000;" /></linearGradient><radialGradient
     id="aigrd3"
     cx="20.8921"
     cy="64.5679"
     r="5.257"
     gradientUnits="userSpaceOnUse"><stop
       offset="0"
       style="stop-color:#F0F0F0"
       id="stop15573" /><stop
       offset="1"
       style="stop-color:#9a9a9a;stop-opacity:1.0000000;"
       id="stop15575" /></radialGradient><radialGradient
     id="aigrd2"
     cx="20.8921"
     cy="114.5684"
     r="5.256"
     gradientUnits="userSpaceOnUse"><stop
       offset="0"
       style="stop-color:#F0F0F0"
       id="stop15566" /><stop
       offset="1"
       style="stop-color:#9a9a9a;stop-opacity:1.0000000;"
       id="stop15568" /></radialGradient><linearGradient
     id="linearGradient269"><stop
       id="stop270"
       offset="0"
       style="stop-color:#a3a3a3;stop-opacity:1.0000000;" /><stop
       id="stop271"
       offset="1"
       style="stop-color:#4c4c4c;stop-opacity:1.0000000;" /></linearGradient><linearGradient
     id="linearGradient259"><stop
       id="stop260"
       offset="0"
       style="stop-color:#fafafa;stop-opacity:1.0000000;" /><stop
       id="stop261"
       offset="1"
       style="stop-color:#bbbbbb;stop-opacity:1.0000000;" /></linearGradient><radialGradient
     id="radialGradient15656"
     gradientUnits="userSpaceOnUse"
     gradientTransform="matrix(0.96827298,0,0,1.0327671,-292.74711,671.61569)"
     cx="8.8244190"
     cy="3.7561285"
     r="37.751713"
     xlink:href="#linearGradient269" /><radialGradient
     id="radialGradient15658"
     gradientUnits="userSpaceOnUse"
     gradientTransform="matrix(0.96049303,0,0,1.041132,-296.10066,670.96924)"
     cx="33.966679"
     cy="35.736916"
     r="86.708450"
     xlink:href="#linearGradient259" /><radialGradient
     id="radialGradient15668"
     gradientUnits="userSpaceOnUse"
     gradientTransform="matrix(0.96827298,0,0,1.0327671,-292.74711,671.61569)"
     cx="8.1435566"
     cy="7.2678967"
     r="38.158695"
     xlink:href="#linearGradient15662" /><radialGradient
     r="5.256"
     cy="114.5684"
     cx="20.8921"
     gradientTransform="matrix(0.22970298,0,0,0.22970298,-290.84068,674.91106)"
     gradientUnits="userSpaceOnUse"
     id="radialGradient2283"
     xlink:href="#aigrd2" /><radialGradient
     r="5.257"
     cy="64.5679"
     cx="20.8921"
     gradientTransform="matrix(0.22970298,0,0,0.22970298,-290.84068,674.91106)"
     gradientUnits="userSpaceOnUse"
     id="radialGradient2285"
     xlink:href="#aigrd3" /><radialGradient
     id="radialGradient4548"
     cx="24.306795"
     cy="42.07798"
     r="15.821514"
     gradientTransform="matrix(1,0,0,0.284916,0,30.08928)"
     gradientUnits="userSpaceOnUse"
     xlink:href="#linearGradient4542" /></defs><sodipodi:namedview
   id="namedview180"
   pagecolor="#ffffff"
   bordercolor="#666666"
   borderopacity="1.0"
   inkscape:showpageshadow="2"
   inkscape:pageopacity="0.0"
   inkscape:pagecheckerboard="0"
   inkscape:deskcolor="#d1d1d1"
   showgrid="false"
   inkscape:zoom="6.1023315"
   inkscape:cx="34.33114"
   inkscape:cy="53.50414"
   inkscape:window-width="2048"
   inkscape:window-height="1088"
   inkscape:window-x="0"
   inkscape:window-y="0"
   inkscape:window-maximized="1"
   inkscape:current-layer="svg178" />
  <style
   id="style174">
    .st0,.st1,.st2{fill:none;stroke:#0073e6;stroke-linecap:round}.st0{stroke-width:6.1973;stroke-linejoin:round}.st1,.st2{stroke-width:6.4261}.st2,.st3{stroke-linejoin:round}.st3,.st4{fill:none;stroke:#0073e6;stroke-width:6;stroke-linecap:round}.st5{fill:#0073e6}
  </style>
  <path
   d="m -190.08515,719.82012 c -0.3,0 -0.7,-0.1 -1,-0.2 -2.6,-0.9 -22.3,-6.3 -24.9,-6.9 -1.7,-0.4 -2.7,-2.1 -2.3,-3.7 0.4,-1.7 2.1,-2.7 3.7,-2.3 2.5,0.6 22.4,6 25.4,7.1 1.6,0.5 2.5,2.3 1.9,3.9 -0.3,1.3 -1.5,2.1 -2.8,2.1 z"
   id="path467"
   style="opacity:0.21549479" /><path
   d="m -203.58515,725.02012 c -0.3,0 -0.7,-0.1 -1,-0.2 -1.9,-0.6 -16.2,-4.6 -18.1,-5 -1.7,-0.4 -2.7,-2.1 -2.3,-3.7 0.4,-1.7 2.1,-2.7 3.7,-2.3 1.9,0.5 16.4,4.4 18.6,5.2 1.6,0.5 2.5,2.3 1.9,3.9 -0.3,1.2 -1.5,2.1 -2.8,2.1 z"
   id="path465"
   style="opacity:0.21549479" /><path
   d="m -190.18515,710.92012 c -0.3,0 -0.7,-0.1 -1,-0.2 -1.8,-0.6 -16.2,-4.6 -18.1,-5 -1.7,-0.4 -2.7,-2.1 -2.3,-3.7 0.4,-1.7 2.1,-2.7 3.7,-2.3 1.9,0.5 16.5,4.4 18.6,5.2 1.6,0.5 2.5,2.3 1.9,3.9 -0.3,1.3 -1.5,2.1 -2.8,2.1 z"
   id="path463"
   style="opacity:0.21549479" /><path
   d="m -176.78515,705.72012 c -0.3,0 -0.7,-0.1 -1,-0.2 -2.5,-0.9 -22.3,-6.3 -24.9,-6.9 -1.7,-0.4 -2.7,-2.1 -2.3,-3.7 0.4,-1.7 2.1,-2.7 3.7,-2.3 2.6,0.6 22.5,6.1 25.4,7.1 1.6,0.5 2.5,2.3 1.9,3.9 -0.3,1.3 -1.5,2.1 -2.8,2.1 z"
   id="path461"
   style="opacity:0.21549479" /><path
   id="path176"
   d="M -210.60039 656.59922 C -217.80038 656.59922 -223.79961 662.6004 -223.79961 669.80039 C -223.79961 674.80039 -221.20078 677.49922 -218.50078 678.59922 C -218.30078 678.69922 -218.09922 678.80039 -217.89922 678.80039 L -217.7 678.80039 C -214.2 679.80039 -171.60039 691.49922 -171.10039 691.59922 L -170.89922 691.59922 C -169.49922 691.99922 -168.1 691.99922 -166.7 691.59922 C -164.6 690.99922 -162.89922 689.70039 -161.89922 687.80039 C -160.89922 685.90039 -160.6 683.80078 -161.2 681.70078 C -161.6 680.20078 -163.2 679.30039 -164.7 679.80039 C -166.2 680.20039 -167.10039 681.80039 -166.60039 683.30039 C -166.40039 683.90039 -166.49961 684.59922 -166.79961 685.09922 C -167.09961 685.69922 -167.6 686.10078 -168.2 686.20078 C -168.7 686.30078 -169.5 686.30039 -170.2 685.80039 C -171.2 685.00039 -171.39922 683.59961 -171.39922 682.49961 C -171.39922 678.39961 -167.89961 674.9 -163.79961 674.9 C -159.59961 674.9 -156.2 678.29961 -156.2 682.49961 C -156.2 690.6996 -163.30079 697.99923 -174.00078 709.09922 L -176.10039 711.30039 C -187.70038 723.30038 -195.39922 731.19962 -195.39922 741.99961 C -195.39922 743.59961 -195.10039 745.09961 -194.60039 746.49961 C -220.70036 739.29962 -228.4 737.19922 -230.7 736.59922 C -230.8 736.49922 -231.00039 736.5 -231.10039 736.4 C -234.40039 735.5 -236.60039 732.49922 -236.60039 729.09922 C -236.60039 720.59923 -229.89921 713.70038 -218.89922 702.30039 L -216.79961 700.20078 C -212.79961 696.10079 -209.40039 692.60039 -206.60039 689.30039 C -205.60039 688.10039 -205.69922 686.30039 -206.89922 685.30039 C -208.09922 684.30039 -209.89922 684.39922 -210.89922 685.59922 C -213.69922 688.79922 -216.99922 692.30039 -220.89922 696.30039 L -223.00078 698.4 C -234.60077 710.39999 -242.29961 718.29923 -242.29961 729.09922 C -242.29961 734.99921 -238.29999 740.20039 -232.7 741.80039 L -232.60039 741.80039 C -230.80039 742.30039 -186.29961 754.49922 -185.79961 754.59922 L -185.60039 754.59922 C -184.50039 754.89922 -183.4 754.99961 -182.2 754.99961 C -175.00001 754.99961 -169.00078 749.00038 -169.00078 741.80039 C -168.90078 738.80039 -170.19922 736.00039 -172.39922 734.30039 C -174.39922 732.80039 -176.99961 732.29961 -179.29961 732.99961 C -181.39961 733.59961 -183.10039 734.90039 -184.10039 736.80039 C -185.10039 738.70039 -185.39961 740.8 -184.79961 742.9 C -184.39961 744.4 -182.79961 745.30039 -181.29961 744.80039 C -179.79961 744.40039 -178.89922 742.80039 -179.39922 741.30039 C -179.59922 740.70039 -179.5 740.09961 -179.2 739.49961 C -178.9 738.89961 -178.39961 738.5 -177.79961 738.4 C -177.29961 738.3 -176.49961 738.30039 -175.79961 738.80039 C -174.79961 739.60039 -174.60039 740.99922 -174.60039 742.09922 C -174.60039 746.19921 -178.1 749.70078 -182.2 749.70078 C -186.4 749.70078 -189.79961 746.29921 -189.79961 742.09922 C -189.79961 733.59923 -183.10038 726.70038 -172.10039 715.30039 L -170.00078 713.09922 C -158.30079 700.99923 -150.60039 693.09921 -150.60039 682.59922 C -150.60039 676.59922 -154.70001 671.5 -160.2 669.9 L -160.29961 669.9 C -194.99957 660.40001 -204.19961 657.80078 -206.79961 657.20078 C -206.89961 657.10078 -207.09961 657.09961 -207.29961 656.99961 C -208.29961 656.79961 -209.50039 656.59922 -210.60039 656.59922 z M -210.39922 662.20078 C -209.79922 662.20078 -209.00078 662.3 -208.50078 662.4 C -207.20078 662.8 -185.40038 668.7 -172.10039 672.4 C -175.00039 674.8 -177.00078 678.49922 -177.00078 682.59922 C -177.00078 683.19922 -176.99922 683.70039 -176.89922 684.30039 C -204.99919 676.6004 -213.29922 674.29922 -215.89922 673.59922 C -215.99922 673.59922 -216.10039 673.49961 -216.10039 673.49961 C -217.40039 673.09961 -218.10039 671.80039 -218.10039 669.80039 C -218.00039 665.70039 -214.49921 662.20078 -210.39922 662.20078 z " />
<g
   id="g1886"><path
     style="font-style:italic;font-weight:normal;font-size:33.3248px;font-family:'DejaVu Serif';text-align:center;text-anchor:middle;fill:#cc0000;fill-opacity:1;stroke:none;stroke-width:1px;stroke-linecap:butt;stroke-linejoin:miter;stroke-opacity:1"
     d="m -217.65968,725.17892 c -0.21788,-0.96123 0.0111,-1.89375 0.68819,-2.79756 0.67666,-0.90382 1.59233,-1.50593 2.74701,-1.80635 1.15465,-0.30041 2.24,-0.20603 3.25606,0.28314 0.98038,0.47201 1.57952,1.18864 1.79742,2.14987 0.23569,0.96981 0.0152,1.90663 -0.66145,2.81044 -0.65027,0.89458 -1.56165,1.48778 -2.73412,1.77962 -1.1725,0.29182 -2.24895,0.20173 -3.22933,-0.27027 -1.01605,-0.48918 -1.6373,-1.20548 -1.86378,-2.14889"
     id="path588" /><path
     style="fill:none;fill-rule:evenodd;stroke:#cc0000;stroke-width:5.5;stroke-linecap:round;stroke-linejoin:miter;stroke-dasharray:none;stroke-opacity:1"
     d="m -203.34854,698.81444 c 0,0 4.74683,-6.06222 11.28151,-2.69364 5.47474,2.82218 4.37292,9.04434 2.628,11.73481 -1.74491,2.69047 -5.65886,5.01386 -14.71384,3.65843 -0.97979,1.21537 -3.93374,4.96708 -3.93374,4.96708"
     id="path702"
     sodipodi:nodetypes="csscc" /></g></svg>